<svg
	xmlns="http://www.w3.org/2000/svg"
	xmlns:xlink="http://www.w3.org/1999/xlink" width="1056" zoomAndPan="magnify" viewBox="0 0 792 611.999999" height="816" preserveAspectRatio="xMidYMid meet" version="1.0">
	<defs>
		<clipPath id="911624cf20">
			<path d="M 90.347656 190.015625 L 730.984375 190.015625 L 730.984375 421.984375 L 90.347656 421.984375 Z M 90.347656 190.015625 " clip-rule="nonzero"/>
		</clipPath>
		<clipPath id="426ceff167">
			<path d="M 696.175781 190.015625 L 124.972656 190.015625 C 124.972656 209.066406 109.566406 224.640625 90.347656 224.640625 L 90.347656 387.359375 C 109.402344 387.359375 124.972656 402.769531 124.972656 421.984375 L 696.175781 421.984375 C 696.175781 402.933594 711.582031 387.359375 730.800781 387.359375 L 730.800781 224.640625 C 711.75 224.640625 696.175781 209.230469 696.175781 190.015625 Z M 696.175781 190.015625 " clip-rule="nonzero"/>
		</clipPath>
		<clipPath id="a9c4c5303f">
			<path d="M 0.347656 0.015625 L 640.800781 0.015625 L 640.800781 231.984375 L 0.347656 231.984375 Z M 0.347656 0.015625 " clip-rule="nonzero"/>
		</clipPath>
		<clipPath id="393759cb95">
			<path d="M 606.175781 0.015625 L 34.972656 0.015625 C 34.972656 19.066406 19.566406 34.640625 0.347656 34.640625 L 0.347656 197.359375 C 19.402344 197.359375 34.972656 212.769531 34.972656 231.984375 L 606.175781 231.984375 C 606.175781 212.933594 621.582031 197.359375 640.800781 197.359375 L 640.800781 34.640625 C 621.75 34.640625 606.175781 19.230469 606.175781 0.015625 Z M 606.175781 0.015625 " clip-rule="nonzero"/>
		</clipPath>
		<clipPath id="750e41e75c">
			<rect x="0" width="641" y="0" height="232"/>
		</clipPath>
		<clipPath id="a457a211a2">
			<path d="M 90.355469 190.015625 L 730.847656 190.015625 L 730.847656 421.765625 L 90.355469 421.765625 Z M 90.355469 190.015625 " clip-rule="nonzero"/>
		</clipPath>
		<clipPath id="9b8ee3c861">
			<path d="M 696.160156 190.015625 L 124.980469 190.015625 C 124.980469 209.066406 109.574219 224.636719 90.355469 224.636719 L 90.355469 387.351562 C 109.40625 387.351562 124.980469 402.757812 124.980469 421.976562 L 696.160156 421.976562 C 696.160156 402.925781 711.566406 387.351562 730.78125 387.351562 L 730.78125 224.636719 C 711.730469 224.636719 696.160156 209.230469 696.160156 190.015625 Z M 696.160156 190.015625 " clip-rule="nonzero"/>
		</clipPath>
	</defs>
	<g clip-path="url(#911624cf20)">
		<g clip-path="url(#426ceff167)">
			<g transform="matrix(1, 0, 0, 1, 90, 190)">
				<g clip-path="url(#750e41e75c)">
					<g clip-path="url(#a9c4c5303f)">
						<g clip-path="url(#393759cb95)">
							<path fill="currentColor" d="M 0.347656 0.015625 L 640.984375 0.015625 L 640.984375 231.984375 L 0.347656 231.984375 Z M 0.347656 0.015625 " fill-opacity="1" fill-rule="nonzero"/>
						</g>
					</g>
				</g>
			</g>
		</g>
	</g>
	<g clip-path="url(#a457a211a2)">
		<g clip-path="url(#9b8ee3c861)">
			<path stroke-linecap="butt" transform="matrix(0.75, 0, 0, 0.75, 90.349334, 190.014957)" fill="none" stroke-linejoin="miter" d="M 807.747799 0.00089017 L 46.174849 0.00089017 C 46.174849 25.401933 25.633181 46.162351 0.00818029 46.162351 L 0.00818029 263.115485 C 25.409223 263.115485 46.174849 283.657152 46.174849 309.282154 L 807.747799 309.282154 C 807.747799 283.881111 828.289466 263.115485 853.909259 263.115485 L 853.909259 46.162351 C 828.508216 46.162351 807.747799 25.620683 807.747799 0.00089017 Z M 807.747799 0.00089017 " stroke="#af5f1d" stroke-width="8" stroke-opacity="1" stroke-miterlimit="4"/>
		</g>
	</g>
</svg>